<svg width="256" height="256" viewBox="0 0 256 256" fill="none" xmlns="http://www.w3.org/2000/svg" id="agrocd">
<style>
#agrocd {
    rect {fill: #15191C}

    @media (prefers-color-scheme: light) {
        rect {fill: #F4F2ED}
    }
}
</style>
<rect width="256" height="256" rx="25" fill="#15191C"/>
<path d="M99.2429 166.635C99.2429 166.635 97.9758 170.45 96.064 172.356C95.5062 172.978 94.8195 173.472 94.0516 173.801C93.2838 174.131 92.4533 174.29 91.6179 174.266C88.4812 175.108 85.293 175.745 82.0735 176.172C82.0735 176.172 86.527 176.809 91.6179 177.445C93.5223 177.445 93.5223 177.445 94.7954 178.082C97.9758 178.082 99.2429 176.172 99.2429 176.172V166.635ZM157.751 166.635C157.751 166.635 159.024 170.45 160.93 172.356C161.489 172.978 162.177 173.471 162.946 173.801C163.715 174.131 164.546 174.289 165.382 174.266C168.516 175.109 171.702 175.745 174.919 176.172C174.919 176.172 170.472 176.809 164.746 177.445C162.84 177.445 162.84 177.445 161.566 178.082C157.751 178.082 157.114 176.172 157.114 176.172L157.751 166.635Z" fill="#E9654B"/>
<path d="M197.815 103.675C197.815 141.606 167.065 172.356 129.134 172.356C91.202 172.356 60.4534 141.606 60.4534 103.675C60.4534 65.7486 91.202 35 129.134 35C167.065 35 197.815 65.7486 197.815 103.675Z" fill="#B6CFEA"/>
<path d="M195.274 103.675C195.274 140.204 165.663 169.813 129.134 169.813C92.6112 169.813 63.0011 140.204 63.0011 103.675C63.0011 67.1518 92.6112 37.5402 129.134 37.5402C165.663 37.5402 195.272 67.1503 195.272 103.673L195.274 103.675Z" fill="#E6F5F8"/>
<path d="M183.187 104.949C183.187 134.803 158.99 159.003 129.134 159.003C99.2833 159.003 75.0797 134.803 75.0797 104.948C75.0797 75.0985 99.2848 50.8949 129.134 50.8949C158.99 50.8949 183.187 75.1015 183.187 104.949Z" fill="#D0E8F0"/>
<path d="M100.687 117.875 h55.3516 v23.9358 h-55.3516 Z" fill="#EE794B"/>
<path d="M97.3386 130.386C97.3386 130.386 101.791 202.246 101.791 203.52C101.791 204.152 102.428 205.425 99.243 206.699C96.064 207.968 85.8898 210.514 85.8898 210.514H101.153C108.149 210.514 108.149 204.789 108.149 203.52C108.149 202.246 110.054 174.904 110.054 174.904C110.054 174.904 110.69 207.337 110.69 208.604C110.69 209.878 110.054 211.783 105.607 213.057C102.428 213.695 92.885 215.6 92.885 215.6H107.513C116.418 215.6 116.418 209.878 116.418 209.878L118.323 181.261C118.323 181.261 118.96 209.878 118.96 213.057C118.96 215.6 117.054 217.511 110.054 218.778C105.607 220.052 99.8802 221.326 99.8802 221.326H116.418C124.681 220.69 125.955 214.962 125.955 214.962L139.944 143.739L97.3386 130.386Z" fill="#EE794B"/>
<path d="M160.93 130.386C160.93 130.386 156.483 202.246 156.483 203.52C156.483 204.152 155.845 205.425 159.026 206.699C162.203 207.968 172.377 210.514 172.377 210.514H157.114C150.119 210.514 150.119 204.789 150.119 203.52C150.119 202.246 148.214 174.904 148.214 174.904C148.214 174.904 147.577 207.337 147.577 208.604C147.577 209.878 148.214 211.783 152.666 213.057L165.382 215.6H150.757C141.856 215.6 141.856 209.878 141.856 209.878L139.946 181.261C139.946 181.261 139.309 209.878 139.309 213.057C139.309 215.6 141.22 217.511 148.216 218.778C152.668 220.052 158.388 221.326 158.388 221.326H141.856C133.586 220.69 132.312 214.962 132.312 214.962L118.324 143.741L160.93 130.386ZM161.566 95.4111C161.566 113.218 146.94 127.207 129.77 127.207C112.602 127.207 97.9744 112.581 97.9744 95.4111C97.9744 78.2431 112.602 63.6153 129.77 63.6153C146.94 63.6153 161.566 77.6058 161.566 95.4111Z" fill="#EE794B"/>
<path d="M140.582 143.102C140.582 153.913 135.492 160.914 129.134 160.914C122.776 160.914 117.686 152.645 117.686 141.835C117.686 141.835 122.776 152.007 129.77 152.007C136.765 152.007 140.582 143.102 140.582 143.102Z" fill="#010101"/>
<path d="M140.582 143.102C140.582 150.103 135.492 153.913 129.134 153.913C122.776 153.913 118.323 148.828 118.323 142.47C118.323 142.47 123.412 148.828 130.407 148.828C137.403 148.828 140.582 143.102 140.582 143.102Z" fill="white"/>
<path d="M171.103 113.218C171.103 124.104 162.279 132.928 151.393 132.928C140.505 132.928 131.676 124.104 131.676 113.218C131.676 102.33 140.505 93.5007 151.393 93.5007C162.279 93.5007 171.103 102.33 171.103 113.218ZM126.591 113.218C126.591 124.104 117.762 132.928 106.874 132.928C95.9877 132.928 87.1643 124.104 87.1643 113.218C87.1643 102.33 95.9877 93.5007 106.875 93.5007C117.762 93.5007 126.591 102.33 126.591 113.218Z" fill="#E9654B"/>
<path d="M166.657 113.218C166.657 121.645 159.82 128.481 151.393 128.481C142.966 128.481 136.128 121.645 136.128 113.218C136.128 104.785 142.965 97.9543 151.393 97.9543C159.819 97.9543 166.657 104.785 166.657 113.218ZM120.864 113.218C120.864 121.645 114.034 128.481 105.607 128.481C97.174 128.481 90.3433 121.645 90.3433 113.218C90.3429 111.213 90.7375 109.228 91.5044 107.376C92.2713 105.524 93.3956 103.841 94.813 102.424C96.2305 101.007 97.9133 99.8823 99.7653 99.1153C101.617 98.3484 103.602 97.9539 105.607 97.9543C114.034 97.9543 120.864 104.785 120.864 113.218Z" fill="white"/>
<path d="M110.054 111.307C110.055 111.892 109.94 112.471 109.717 113.011C109.493 113.551 109.166 114.042 108.753 114.455C108.339 114.869 107.849 115.197 107.309 115.421C106.769 115.645 106.191 115.76 105.606 115.76C105.022 115.761 104.443 115.646 103.903 115.422C103.363 115.199 102.872 114.871 102.458 114.458C102.045 114.045 101.717 113.555 101.493 113.015C101.269 112.475 101.154 111.896 101.153 111.312C101.153 110.132 101.621 108.999 102.455 108.164C103.289 107.329 104.421 106.859 105.601 106.858C106.781 106.858 107.914 107.326 108.749 108.16C109.584 108.994 110.054 110.127 110.054 111.307ZM155.845 111.307C155.856 111.899 155.749 112.487 155.53 113.036C155.312 113.586 154.986 114.086 154.571 114.508C154.157 114.931 153.663 115.266 153.117 115.495C152.572 115.724 151.986 115.842 151.395 115.842C150.803 115.842 150.218 115.724 149.672 115.495C149.127 115.267 148.632 114.931 148.218 114.509C147.803 114.087 147.477 113.587 147.258 113.038C147.039 112.488 146.932 111.9 146.943 111.309C146.964 110.143 147.442 109.031 148.274 108.213C149.106 107.396 150.226 106.937 151.392 106.937C152.559 106.937 153.679 107.394 154.512 108.211C155.345 109.028 155.823 110.141 155.845 111.307Z" fill="#010101"/>
<path d="M59.1848 120.849C58.7605 120.875 58.3355 120.811 57.9379 120.66C57.5403 120.51 57.1793 120.277 56.8787 119.976C56.5781 119.675 56.3448 119.314 56.1943 118.917C56.0438 118.519 55.9796 118.094 56.0059 117.67V92.2336C55.9793 91.8091 56.0432 91.3839 56.1933 90.9859C56.3434 90.588 56.5763 90.2265 56.8765 89.9253C57.1777 89.625 57.5392 89.3921 57.9372 89.242C58.3351 89.0919 58.7604 89.0281 59.1848 89.0546C59.6091 89.0284 60.0342 89.0926 60.4318 89.2431C60.8294 89.3935 61.1904 89.6268 61.491 89.9274C61.7916 90.228 62.0249 90.5891 62.1754 90.9867C62.3258 91.3842 62.3901 91.8093 62.3638 92.2336V117.671C62.4162 118.524 62.0945 119.366 61.4872 119.975C61.1869 120.276 60.8263 120.509 60.4291 120.66C60.032 120.811 59.6074 120.876 59.1833 120.85L59.1848 120.849ZM197.815 120.849C197.391 120.874 196.966 120.81 196.569 120.658C196.172 120.507 195.811 120.273 195.511 119.972C195.211 119.672 194.978 119.312 194.827 118.915C194.676 118.518 194.611 118.094 194.636 117.67V92.2336C194.611 91.8087 194.676 91.3833 194.827 90.9854C194.978 90.5874 195.212 90.2261 195.513 89.9253C195.813 89.6252 196.173 89.3923 196.57 89.2422C196.967 89.0921 197.392 89.0282 197.815 89.0546C198.239 89.0282 198.663 89.0921 199.06 89.2422C199.457 89.3923 199.817 89.6252 200.118 89.9253C200.731 90.5341 201.045 91.3764 200.994 92.2336V117.671C201.021 118.096 200.956 118.521 200.805 118.918C200.654 119.315 200.419 119.676 200.118 119.975C199.818 120.276 199.457 120.51 199.06 120.661C198.663 120.811 198.238 120.876 197.814 120.85L197.815 120.849Z" fill="#B6CFEA"/>
<path d="M110.692 52.8053C110.692 53.6484 110.357 54.457 109.761 55.0532C109.164 55.6493 108.356 55.9843 107.513 55.9843C106.67 55.9843 105.861 55.6493 105.265 55.0532C104.669 54.457 104.334 53.6484 104.334 52.8053C104.334 51.9622 104.669 51.1536 105.265 50.5574C105.861 49.9612 106.67 49.6263 107.513 49.6263C108.356 49.6263 109.164 49.9612 109.761 50.5574C110.357 51.1536 110.692 51.9622 110.692 52.8053ZM84.6226 138.654C84.2767 138.698 83.9254 138.663 83.5945 138.553C83.2636 138.443 82.9616 138.261 82.7108 138.018C75.0797 128.481 71.2634 116.397 71.2634 104.312C71.2294 94.2653 73.8633 84.3895 78.896 75.6939C83.9976 67.4172 90.9658 60.4495 99.2429 55.3485C99.7743 55.1102 100.367 55.0434 100.938 55.1573C101.509 55.2713 102.03 55.5603 102.429 55.9843C102.665 56.515 102.731 57.106 102.616 57.6755C102.502 58.245 102.213 58.7648 101.791 59.1632C93.9018 63.6203 87.3337 70.0865 82.7538 77.9047C78.1739 85.7228 75.7455 94.6141 75.7155 103.675C75.6978 114.986 79.5083 125.97 86.527 134.839C87.1643 135.477 87.1643 137.383 85.8897 138.018C85.2539 138.656 85.2539 138.654 84.6226 138.654Z" fill="white"/>
</svg>