<svg width="256" height="256" viewBox="0 0 256 256" fill="none" xmlns="http://www.w3.org/2000/svg" id="googlecloud">
<style>
#googlecloud {
    rect {fill: #15191C}

    @media (prefers-color-scheme: light) {
        rect {fill: #F4F2ED}
    }
}
</style>
<rect width="256" height="256" rx="25" fill="#15191C"/>
<path d="M150.873 97.6739H156.058L170.835 82.8966L171.561 76.6228C163.095 69.1509 152.865 63.9605 141.836 61.5418C130.807 59.1231 119.343 59.556 108.528 62.7995C97.7127 66.0431 87.9028 71.9902 80.025 80.0792C72.1472 88.1681 66.4615 98.1318 63.5051 109.029C65.1514 108.354 66.975 108.245 68.6901 108.718L98.2447 103.844C98.2447 103.844 99.7484 101.355 100.526 101.511C106.859 94.556 115.61 90.2848 124.989 89.5715C134.368 88.8582 143.665 91.7568 150.976 97.6739H150.873Z" fill="#EA4335"/>
<path d="M191.886 109.029C188.49 96.5209 181.516 85.2762 171.82 76.6746L151.08 97.4146C155.402 100.946 158.866 105.414 161.211 110.48C163.555 115.545 164.718 121.077 164.613 126.658V130.339C167.037 130.339 169.437 130.817 171.677 131.745C173.916 132.672 175.951 134.032 177.665 135.746C179.379 137.46 180.739 139.495 181.667 141.734C182.594 143.974 183.072 146.374 183.072 148.798C183.072 151.222 182.594 153.622 181.667 155.862C180.739 158.101 179.379 160.136 177.665 161.85C175.951 163.564 173.916 164.924 171.677 165.852C169.437 166.779 167.037 167.257 164.613 167.257H127.696L124.014 170.99V193.13L127.696 196.811H164.613C174.922 196.892 184.983 193.652 193.308 187.571C201.633 181.489 207.779 172.89 210.838 163.045C213.897 153.2 213.705 142.632 210.292 132.904C206.879 123.176 200.426 114.805 191.886 109.029Z" fill="#4285F4"/>
<path d="M90.7265 196.604H127.644V167.049H90.7265C88.0963 167.049 85.4969 166.483 83.1045 165.39L77.9195 166.998L63.0385 181.775L61.7422 186.96C70.0872 193.261 80.2698 196.649 90.7265 196.604Z" fill="#34A853"/>
<path d="M90.7265 100.733C80.7236 100.793 70.9892 103.975 62.8829 109.836C54.7765 115.697 48.703 123.943 45.5107 133.423C42.3184 142.903 42.1666 153.143 45.0766 162.713C47.9866 172.284 53.8131 180.706 61.7422 186.804L83.1563 165.39C80.435 164.161 78.0527 162.289 76.2136 159.937C74.3745 157.584 73.1337 154.821 72.5975 151.883C72.0614 148.945 72.2459 145.921 73.1353 143.071C74.0248 140.22 75.5925 137.628 77.704 135.516C79.8155 133.405 82.4078 131.837 85.2584 130.948C88.109 130.058 91.1328 129.874 94.0704 130.41C97.008 130.946 99.7717 132.187 102.124 134.026C104.477 135.865 106.348 138.248 107.578 140.969L128.992 119.555C124.497 113.679 118.704 108.922 112.066 105.657C105.428 102.392 98.1242 100.707 90.7265 100.733Z" fill="#FBBC05"/>
</svg>