<svg width="256" height="256" viewBox="0 0 256 256" fill="none" xmlns="http://www.w3.org/2000/svg">
<rect width="256" height="256" rx="25" fill="#326CE5"/>
<path d="M128.495 43C125.752 43.0003 123.527 45.4712 123.528 48.5191C123.528 48.5658 123.537 48.6105 123.538 48.657C123.534 49.0712 123.514 49.5701 123.528 49.9307C123.593 51.6886 123.976 53.0341 124.207 54.6537C124.625 58.1202 124.975 60.9938 124.759 63.6646C124.549 64.6718 123.807 65.5929 123.146 66.2331L123.029 68.3346C120.048 68.5816 117.047 69.0338 114.05 69.7144C101.152 72.6427 90.0478 79.2863 81.5935 88.2562C81.0449 87.882 80.0852 87.1935 79.7998 86.9826C78.9129 87.1024 78.0166 87.376 76.8492 86.6961C74.6263 85.1998 72.6018 83.1343 70.152 80.6463C69.0296 79.4562 68.2167 78.3229 66.8831 77.1757C66.5802 76.9152 66.118 76.5628 65.7793 76.2948C64.7366 75.4635 63.5069 75.03 62.3192 74.9893C60.7923 74.937 59.3223 75.534 58.3604 76.7405C56.6502 78.8854 57.1978 82.1638 59.5809 84.0639C59.6051 84.0832 59.6309 84.0981 59.6552 84.117C59.9827 84.3824 60.3837 84.7226 60.6847 84.9448C62.1 85.9897 63.3927 86.5246 64.8028 87.3541C67.7736 89.1887 70.2364 90.71 72.1898 92.5441C72.9527 93.3573 73.086 94.7901 73.1875 95.4098L74.7796 96.832C66.257 109.658 62.3127 125.5 64.6436 141.642L62.5634 142.247C62.0151 142.955 61.2403 144.069 60.43 144.402C57.8742 145.207 54.9978 145.503 51.5252 145.867C49.8949 146.002 48.4882 145.921 46.7598 146.249C46.3793 146.321 45.8493 146.459 45.4331 146.557C45.4186 146.559 45.4051 146.564 45.3906 146.567C45.3679 146.572 45.3381 146.583 45.3163 146.588C42.3886 147.296 40.5079 149.987 41.1133 152.638C41.719 155.29 44.5787 156.903 47.5239 156.268C47.5452 156.263 47.5761 156.262 47.5982 156.257C47.6315 156.25 47.6607 156.234 47.6937 156.225C48.1043 156.135 48.6188 156.035 48.978 155.939C50.6773 155.484 51.908 154.815 53.4357 154.23C56.7223 153.051 59.4444 152.067 62.0963 151.683C63.204 151.596 64.3709 152.366 64.9514 152.691L67.1166 152.32C72.0991 167.767 82.5408 180.253 95.7626 188.087L94.8604 190.253C95.1856 191.093 95.5442 192.231 95.302 193.061C94.3379 195.561 92.6865 198.2 90.806 201.142C89.8955 202.501 88.9637 203.556 88.142 205.112C87.9454 205.484 87.695 206.056 87.5052 206.449C86.2286 209.18 87.165 212.326 89.6173 213.507C92.085 214.695 95.1481 213.442 96.4737 210.705C96.4756 210.701 96.4824 210.698 96.4843 210.694C96.4856 210.691 96.483 210.687 96.4843 210.684C96.6731 210.296 96.9406 209.786 97.0999 209.421C97.8036 207.808 98.0378 206.427 98.5327 204.867C99.847 201.566 100.569 198.102 102.378 195.944C102.874 195.353 103.681 195.126 104.519 194.901L105.644 192.864C117.17 197.288 130.073 198.475 142.961 195.549C145.901 194.881 148.74 194.017 151.484 192.98C151.8 193.541 152.388 194.619 152.545 194.891C153.396 195.168 154.325 195.311 155.082 196.43C156.435 198.742 157.361 201.478 158.489 204.783C158.984 206.342 159.228 207.724 159.932 209.336C160.093 209.703 160.359 210.22 160.548 210.609C161.871 213.355 164.943 214.613 167.415 213.422C169.867 212.241 170.804 209.095 169.527 206.364C169.337 205.971 169.076 205.399 168.879 205.027C168.058 203.471 167.126 202.427 166.215 201.068C164.335 198.126 162.775 195.682 161.811 193.182C161.408 191.892 161.879 191.091 162.193 190.253C162.005 190.037 161.602 188.819 161.365 188.247C175.106 180.133 185.241 167.182 190 152.224C190.643 152.325 191.76 152.523 192.123 152.596C192.87 152.103 193.557 151.46 194.904 151.566C197.556 151.95 200.278 152.935 203.564 154.113C205.092 154.699 206.323 155.378 208.022 155.833C208.381 155.929 208.896 156.019 209.306 156.109C209.339 156.117 209.369 156.133 209.402 156.141C209.424 156.146 209.455 156.146 209.476 156.151C212.422 156.785 215.282 155.173 215.887 152.521C216.492 149.87 214.612 147.178 211.684 146.472C211.258 146.375 210.654 146.21 210.24 146.132C208.512 145.805 207.105 145.885 205.475 145.75C202.002 145.386 199.126 145.09 196.57 144.285C195.528 143.881 194.787 142.641 194.426 142.131L192.42 141.547C193.46 134.023 193.18 126.192 191.38 118.356C189.564 110.448 186.353 103.215 182.072 96.8426C182.587 96.3748 183.558 95.5143 183.834 95.2612C183.914 94.3699 183.845 93.4355 184.768 92.4486C186.721 90.6143 189.184 89.0934 192.155 87.2586C193.565 86.429 194.868 85.8943 196.284 84.8493C196.604 84.613 197.041 84.2388 197.377 83.9684C199.759 82.0677 200.308 78.7895 198.597 76.645C196.887 74.5005 193.572 74.2985 191.189 76.1992C190.85 76.4678 190.39 76.8182 190.085 77.0802C188.752 78.2274 187.928 79.3606 186.806 80.5508C184.356 83.0389 182.331 85.1147 180.109 86.6111C179.145 87.1719 177.734 86.9779 177.094 86.9402L175.205 88.2881C164.432 76.9917 149.765 69.7694 133.971 68.3664C133.927 67.7046 133.869 66.5082 133.855 66.1482C133.208 65.5295 132.427 65.0013 132.231 63.6646C132.015 60.9938 132.375 58.1202 132.793 54.6537C133.024 53.034 133.407 51.6886 133.473 49.9307C133.487 49.531 133.464 48.9511 133.462 48.5191C133.462 45.4711 131.238 42.9997 128.495 43ZM122.275 81.5272L120.8 107.584L120.694 107.637C120.595 109.968 118.676 111.829 116.321 111.829C115.356 111.829 114.466 111.519 113.742 110.99L113.699 111.012L92.3344 95.8662C98.9008 89.4093 107.3 84.6377 116.979 82.44C118.747 82.0385 120.515 81.7407 122.275 81.5272ZM134.725 81.5272C146.026 82.9171 156.477 88.0342 164.485 95.8768L143.258 110.927L143.184 110.895C141.3 112.271 138.645 111.93 137.177 110.088C136.575 109.334 136.259 108.447 136.221 107.552L136.2 107.541L134.725 81.5272ZM84.5865 105.599L104.094 123.048L104.073 123.154C105.834 124.684 106.093 127.341 104.625 129.182C104.023 129.936 103.218 130.442 102.354 130.679L102.332 130.764L77.3269 137.981C76.0542 126.343 78.7969 115.03 84.5865 105.599ZM172.265 105.609C175.164 110.307 177.358 115.555 178.665 121.243C179.956 126.864 180.28 132.474 179.748 137.896L154.615 130.657L154.594 130.551C152.343 129.936 150.96 127.647 151.484 125.351C151.698 124.41 152.198 123.614 152.874 123.026L152.864 122.973L172.265 105.609ZM124.493 124.395H132.486L137.453 130.604L135.67 138.352L128.495 141.802L121.299 138.342L119.516 130.594L124.493 124.395ZM150.115 145.644C150.454 145.627 150.792 145.657 151.123 145.718L151.165 145.665L177.031 150.038C173.245 160.673 166.002 169.886 156.324 176.052L146.283 151.8L146.315 151.757C145.393 149.614 146.316 147.101 148.438 146.079C148.981 145.817 149.549 145.672 150.115 145.644ZM106.673 145.75C108.647 145.778 110.418 147.148 110.876 149.157C111.091 150.097 110.987 151.029 110.632 151.853L110.706 151.948L100.772 175.956C91.4842 169.996 84.0862 161.072 80.1288 150.123L105.771 145.771L105.814 145.824C106.1 145.771 106.391 145.746 106.673 145.75ZM128.336 156.268C129.023 156.243 129.721 156.384 130.384 156.703C131.253 157.122 131.925 157.781 132.348 158.571H132.443L145.084 181.411C143.443 181.961 141.757 182.431 140.032 182.823C130.364 185.018 120.727 184.353 112.001 181.38L124.61 158.582H124.631C125.388 157.167 126.823 156.324 128.336 156.268Z" fill="white"/>
</svg>