<svg width="256" height="256" viewBox="0 0 256 256" fill="none" xmlns="http://www.w3.org/2000/svg" id="podman">
<style>
#podman {
    rect {fill: #15191C}

    @media (prefers-color-scheme: light) {
        rect {fill: #F4F2ED}
    }
}
</style>
<rect width="256" height="256" rx="25" fill="#15191C"/>
<path d="M95.6821 174.62H195.822" stroke="#3C6EB4" stroke-width="4"/>
<path d="M136.145 124.523H182.468" stroke="#3C6EB4" stroke-width="4"/>
<path d="M143.852 134.157H190.175" stroke="#3C6EB4" stroke-width="4"/>
<path fill-rule="evenodd" clip-rule="evenodd" d="M176.945 144.972C167.279 129.287 169.443 114.157 164.873 92.5409C162.364 79.1902 153.895 68.1702 142.871 64.1353C133.776 60.96 114.887 60.9503 106.88 64.1353C95.8562 68.1702 87.3874 79.1902 84.8792 92.5409C80.3083 114.157 82.4732 129.287 72.8068 144.972" fill="#CCCCCC"/>
<path d="M176.945 144.972C167.279 129.287 169.443 114.157 164.873 92.5409C162.364 79.1902 153.895 68.1702 142.871 64.1353C133.776 60.96 114.887 60.9503 106.88 64.1353C95.8562 68.1702 87.3874 79.1902 84.8792 92.5409C80.3083 114.157 82.4732 129.287 72.8068 144.972" stroke="black" stroke-width="3"/>
<path d="M149.558 118.439C152.139 118.439 154.231 116.235 154.231 113.517C154.231 110.798 152.139 108.594 149.558 108.594C146.977 108.594 144.885 110.798 144.885 113.517C144.885 116.235 146.977 118.439 149.558 118.439Z" fill="#E7E8E9"/>
<path d="M102.338 118.439C104.919 118.439 107.011 116.235 107.011 113.517C107.011 110.798 104.919 108.594 102.338 108.594C99.7577 108.594 97.6656 110.798 97.6656 113.517C97.6656 116.235 99.7577 118.439 102.338 118.439Z" fill="#E7E8E9"/>
<path d="M110.455 110.809L93.0889 115.466" stroke="#A7A9AC" stroke-width="2"/>
<path d="M112.422 113.517L94.9598 123.607" stroke="#A7A9AC" stroke-width="2"/>
<path d="M113.898 116.716L96.1904 134.439" stroke="#A7A9AC" stroke-width="2"/>
<path d="M114.636 120.901L105.586 136.589" stroke="#A7A9AC" stroke-width="2"/>
<path d="M142.821 110.809L160.187 115.466" stroke="#A7A9AC" stroke-width="2"/>
<path d="M140.854 113.517L158.316 123.607" stroke="#A7A9AC" stroke-width="2"/>
<path d="M139.378 116.716L157.086 134.439" stroke="#A7A9AC" stroke-width="2"/>
<path d="M138.641 120.901L147.691 136.589" stroke="#A7A9AC" stroke-width="2"/>
<path d="M126.44 124.347C134.726 124.347 141.443 117.955 141.443 110.07C141.443 102.186 134.726 95.7942 126.44 95.7942C118.155 95.7942 111.438 102.186 111.438 110.07C111.438 117.955 118.155 124.347 126.44 124.347Z" fill="white" stroke="#60605B" stroke-width="3" stroke-linecap="square"/>
<path d="M149.407 105.283C145.417 105.283 142.183 101.964 142.183 97.8689C142.183 93.7742 145.417 90.4548 149.407 90.4548C153.397 90.4548 156.632 93.7742 156.632 97.8689C156.632 101.964 153.397 105.283 149.407 105.283Z" fill="black" stroke="#892CA0" stroke-width="3" stroke-linecap="square"/>
<path d="M155.885 82.347C154.441 80.4681 152.144 79.274 149.778 79.1727C147.544 79.077 145.285 79.9515 143.698 81.5268" stroke="black" stroke-width="3" stroke-linecap="square"/>
<path d="M126.44 107.609L126.81 114.993C126.81 114.993 132.712 120.285 136.155 114.87C136.155 114.87 135.786 111.794 135.54 110.809" stroke="black" stroke-width="3"/>
<path d="M126.372 107.609L126.003 114.993C126.003 114.993 120.101 120.285 116.657 114.87C116.657 114.87 117.027 111.794 117.272 110.809" stroke="black" stroke-width="3"/>
<path d="M132.843 107.495C132.339 106.192 132.339 103.585 130.83 103.585C129.321 103.585 127.925 102.607 126.44 102.607C124.956 102.607 123.56 103.585 122.051 103.585C120.541 103.585 120.541 106.192 120.038 107.495C119.535 108.799 126.44 113.035 126.44 113.035C126.44 113.035 133.346 108.799 132.843 107.495Z" fill="#808080" stroke="black" stroke-width="3" stroke-linecap="square"/>
<path d="M61.377 160.177H133.587" stroke="#3C6EB4" stroke-width="4"/>
<path d="M102.645 105.283C106.635 105.283 109.87 101.964 109.87 97.8689C109.87 93.7742 106.635 90.4548 102.645 90.4548C98.6549 90.4548 95.4203 93.7742 95.4203 97.8689C95.4203 101.964 98.6549 105.283 102.645 105.283Z" fill="black" stroke="#892CA0" stroke-width="3" stroke-linecap="square"/>
<path d="M100.234 99.4766C102.196 99.4766 103.787 97.8227 103.787 95.7824C103.787 93.7422 102.196 92.0883 100.234 92.0883C98.272 92.0883 96.6815 93.7422 96.6815 95.7824C96.6815 97.8227 98.272 99.4766 100.234 99.4766Z" fill="white"/>
<path d="M96.1673 82.347C97.6109 80.4681 99.908 79.274 102.274 79.1727C104.508 79.077 106.767 79.9515 108.354 81.5268" stroke="black" stroke-width="3" stroke-linecap="square"/>
<path d="M146.975 99.4766C148.938 99.4766 150.528 97.8227 150.528 95.7824C150.528 93.7422 148.938 92.0883 146.975 92.0883C145.013 92.0883 143.423 93.7422 143.423 95.7824C143.423 97.8227 145.013 99.4766 146.975 99.4766Z" fill="white"/>
<path d="M78.7182 144.763H198.614" stroke="#3C6EB4" stroke-width="4"/>
<path fill-rule="evenodd" clip-rule="evenodd" d="M123.16 165.488C122.368 160.098 121.984 154.236 120.522 147.339C118.917 138.819 113.499 131.786 106.448 129.211C100.63 127.185 88.5468 127.179 83.4249 129.211C76.3729 131.786 70.9556 138.819 69.3511 147.339C67.8891 154.236 67.5043 160.098 66.7121 165.488" fill="#CCCCCC"/>
<path d="M123.16 165.488C122.368 160.098 121.984 154.236 120.522 147.339C118.917 138.819 113.499 131.786 106.448 129.211C100.63 127.185 88.5468 127.179 83.4249 129.211C76.3729 131.786 70.9556 138.819 69.3511 147.339C67.8891 154.236 67.5043 160.098 66.7121 165.488" stroke="black" stroke-width="3"/>
<path d="M110.725 163.866C112.376 163.866 113.714 162.459 113.714 160.724C113.714 158.989 112.376 157.583 110.725 157.583C109.074 157.583 107.736 158.989 107.736 160.724C107.736 162.459 109.074 163.866 110.725 163.866Z" fill="#E7E8E9"/>
<path d="M80.5195 163.866C82.1703 163.866 83.5085 162.459 83.5085 160.724C83.5085 158.989 82.1703 157.583 80.5195 157.583C78.8686 157.583 77.5304 158.989 77.5304 160.724C77.5304 162.459 78.8686 163.866 80.5195 163.866Z" fill="#E7E8E9"/>
<path d="M85.7111 158.996L74.6025 161.968" stroke="#A7A9AC" stroke-width="2"/>
<path d="M86.9697 160.724L75.7993 167.164" stroke="#A7A9AC" stroke-width="2"/>
<path d="M87.9137 162.766L76.5865 174.076" stroke="#A7A9AC" stroke-width="2"/>
<path d="M88.3856 165.437L82.5965 175.448" stroke="#A7A9AC" stroke-width="2"/>
<path d="M106.415 158.996L117.524 161.968" stroke="#A7A9AC" stroke-width="2"/>
<path d="M105.157 160.724L116.327 167.164" stroke="#A7A9AC" stroke-width="2"/>
<path d="M104.213 162.766L115.54 174.076" stroke="#A7A9AC" stroke-width="2"/>
<path d="M103.741 165.437L109.53 175.448" stroke="#A7A9AC" stroke-width="2"/>
<path d="M95.937 167.636C101.237 167.636 105.534 163.557 105.534 158.525C105.534 153.494 101.237 149.415 95.937 149.415C90.637 149.415 86.3405 153.494 86.3405 158.525C86.3405 163.557 90.637 167.636 95.937 167.636Z" fill="white" stroke="#60605B" stroke-width="3" stroke-linecap="square"/>
<path d="M110.628 155.47C108.076 155.47 106.007 153.352 106.007 150.739C106.007 148.126 108.076 146.007 110.628 146.007C113.181 146.007 115.25 148.126 115.25 150.739C115.25 153.352 113.181 155.47 110.628 155.47Z" fill="black" stroke="#892CA0" stroke-width="3" stroke-linecap="square"/>
<path d="M114.772 140.833C113.848 139.634 112.379 138.872 110.866 138.807C109.437 138.746 107.993 139.304 106.976 140.31" stroke="black" stroke-width="3" stroke-linecap="square"/>
<path d="M95.937 156.954L96.1732 161.667C96.1732 161.667 99.949 165.044 102.151 161.588C102.151 161.588 101.915 159.625 101.758 158.996" stroke="black" stroke-width="3"/>
<path d="M95.8937 156.954L95.6575 161.667C95.6575 161.667 91.8817 165.044 89.6792 161.588C89.6792 161.588 89.9154 159.625 90.0726 158.996" stroke="black" stroke-width="3"/>
<path d="M100.033 156.882C99.7107 156.05 99.7106 154.386 98.7451 154.386C97.7795 154.386 96.8868 153.762 95.9371 153.762C94.9874 153.762 94.0948 154.386 93.1293 154.386C92.1637 154.386 92.1636 156.05 91.8417 156.882C91.5198 157.714 95.9371 160.417 95.9371 160.417C95.9371 160.417 100.355 157.714 100.033 156.882Z" fill="#808080" stroke="black" stroke-width="3" stroke-linecap="square"/>
<path d="M80.7156 155.47C83.268 155.47 85.337 153.352 85.337 150.739C85.337 148.126 83.268 146.007 80.7156 146.007C78.1632 146.007 76.0942 148.126 76.0942 150.739C76.0942 153.352 78.1632 155.47 80.7156 155.47Z" fill="black" stroke="#892CA0" stroke-width="3" stroke-linecap="square"/>
<path d="M79.1733 151.765C80.4284 151.765 81.4459 150.709 81.4459 149.407C81.4459 148.105 80.4284 147.05 79.1733 147.05C77.9182 147.05 76.9007 148.105 76.9007 149.407C76.9007 150.709 77.9182 151.765 79.1733 151.765Z" fill="white"/>
<path d="M76.5719 140.833C77.4965 139.634 78.9656 138.872 80.4785 138.807C81.907 138.746 83.3515 139.304 84.368 140.31" stroke="black" stroke-width="3" stroke-linecap="square"/>
<path d="M109.389 152.095C110.644 152.095 111.661 151.04 111.661 149.738C111.661 148.436 110.644 147.381 109.389 147.381C108.134 147.381 107.116 148.436 107.116 149.738C107.116 151.04 108.134 152.095 109.389 152.095Z" fill="white"/>
<path d="M128.82 213.915L58.5517 180.296L41 104.335L89.3807 43.2333L167.263 43L216 103.812L198.891 179.876L128.82 213.915Z" stroke="#892CA0" stroke-width="4" stroke-linecap="round" stroke-linejoin="round"/>
<path fill-rule="evenodd" clip-rule="evenodd" d="M188.09 172.805C187.243 167.043 186.831 160.775 185.268 153.401C183.553 144.292 177.761 136.774 170.221 134.021C164.001 131.854 151.083 131.848 145.607 134.021C138.067 136.774 132.276 144.292 130.56 153.401C128.997 160.775 128.586 167.043 127.739 172.805" fill="#CCCCCC"/>
<path d="M188.09 172.805C187.243 167.043 186.831 160.775 185.268 153.401C183.553 144.292 177.761 136.774 170.221 134.021C164.001 131.854 151.083 131.848 145.607 134.021C138.067 136.774 132.276 144.292 130.56 153.401C128.997 160.775 128.586 167.043 127.739 172.805" stroke="black" stroke-width="3"/>
<path d="M174.795 171.071C176.56 171.071 177.991 169.567 177.991 167.712C177.991 165.857 176.56 164.354 174.795 164.354C173.03 164.354 171.599 165.857 171.599 167.712C171.599 169.567 173.03 171.071 174.795 171.071Z" fill="#E7E8E9"/>
<path d="M142.501 171.071C144.266 171.071 145.696 169.567 145.696 167.712C145.696 165.857 144.266 164.354 142.501 164.354C140.736 164.354 139.305 165.857 139.305 167.712C139.305 169.567 140.736 171.071 142.501 171.071Z" fill="#E7E8E9"/>
<path d="M148.051 165.865L136.175 169.042" stroke="#A7A9AC" stroke-width="2"/>
<path d="M149.397 167.712L137.454 174.597" stroke="#A7A9AC" stroke-width="2"/>
<path d="M170.187 165.865L182.064 169.042" stroke="#A7A9AC" stroke-width="2"/>
<path d="M168.842 167.712L180.784 174.597" stroke="#A7A9AC" stroke-width="2"/>
<path d="M158.984 175.102C164.651 175.102 169.244 170.741 169.244 165.361C169.244 159.982 164.651 155.621 158.984 155.621C153.318 155.621 148.724 159.982 148.724 165.361C148.724 170.741 153.318 175.102 158.984 175.102Z" fill="white" stroke="#60605B" stroke-width="3" stroke-linecap="square"/>
<path d="M174.691 162.095C171.962 162.095 169.75 159.83 169.75 157.036C169.75 154.243 171.962 151.978 174.691 151.978C177.42 151.978 179.632 154.243 179.632 157.036C179.632 159.83 177.42 162.095 174.691 162.095Z" fill="black" stroke="#892CA0" stroke-width="3" stroke-linecap="square"/>
<path d="M179.121 146.446C178.133 145.164 176.562 144.35 174.945 144.28C173.418 144.215 171.873 144.811 170.787 145.886" stroke="black" stroke-width="3" stroke-linecap="square"/>
<path d="M158.984 163.682L159.237 168.72C159.237 168.72 163.273 172.331 165.628 168.636C165.628 168.636 165.376 166.537 165.208 165.865" stroke="black" stroke-width="3"/>
<path d="M158.937 163.682L158.685 168.72C158.685 168.72 154.648 172.331 152.293 168.636C152.293 168.636 152.546 166.537 152.714 165.865" stroke="black" stroke-width="3"/>
<path d="M163.363 163.604C163.019 162.715 163.019 160.936 161.987 160.936C160.954 160.936 160 160.269 158.984 160.269C157.969 160.269 157.015 160.936 155.982 160.936C154.95 160.936 154.95 162.715 154.606 163.604C154.262 164.494 158.984 167.384 158.984 167.384C158.984 167.384 163.707 164.494 163.363 163.604Z" fill="#808080" stroke="black" stroke-width="3" stroke-linecap="square"/>
<path d="M142.711 162.095C145.44 162.095 147.652 159.83 147.652 157.036C147.652 154.243 145.44 151.978 142.711 151.978C139.982 151.978 137.77 154.243 137.77 157.036C137.77 159.83 139.982 162.095 142.711 162.095Z" fill="black" stroke="#892CA0" stroke-width="3" stroke-linecap="square"/>
<path d="M141.062 158.133C142.404 158.133 143.491 157.005 143.491 155.613C143.491 154.221 142.404 153.092 141.062 153.092C139.72 153.092 138.632 154.221 138.632 155.613C138.632 157.005 139.72 158.133 141.062 158.133Z" fill="white"/>
<path d="M138.28 146.446C139.269 145.164 140.839 144.35 142.457 144.28C143.984 144.215 145.528 144.811 146.615 145.886" stroke="black" stroke-width="3" stroke-linecap="square"/>
<path d="M173.549 158.464C174.891 158.464 175.979 157.336 175.979 155.944C175.979 154.552 174.891 153.423 173.549 153.423C172.207 153.423 171.12 154.552 171.12 155.944C171.12 157.336 172.207 158.464 173.549 158.464Z" fill="white"/>
<path d="M87.9747 184.254H134.298" stroke="#3C6EB4" stroke-width="4"/>
<path d="M114.95 193.888H153.099" stroke="#3C6EB4" stroke-width="4"/>
</svg>