<svg width="256" height="256" viewBox="0 0 256 256" fill="none" xmlns="http://www.w3.org/2000/svg" id="vscode">
<style>
#vscode {
    rect {fill: #15191C}

    @media (prefers-color-scheme: light) {
        rect {fill: #F4F2ED}
    }
}
</style>
<rect width="256" height="256" rx="25" fill="#15191C"/>
<path d="M197.695 68.798L166.807 53.926C163.232 52.2046 158.959 52.9307 156.153 55.7366L55.0378 147.93C52.318 150.41 52.3212 154.692 55.0445 157.168L63.304 164.676C65.5304 166.7 68.8836 166.849 71.2808 165.031L193.047 72.6562C197.133 69.5571 203 72.4707 203 77.5984V77.2398C203 73.6405 200.938 70.3594 197.695 68.798Z" fill="#0065A9"/>
<path d="M197.695 186.338L166.807 201.21C163.232 202.932 158.959 202.205 156.153 199.399L55.0378 107.206C52.318 104.726 52.3212 100.444 55.0445 97.9682L63.304 90.4596C65.5304 88.4355 68.8836 88.2865 71.2808 90.1051L193.047 182.48C197.133 185.579 203 182.665 203 177.538V177.896C203 181.496 200.938 184.777 197.695 186.338Z" fill="#007ACC"/>
<path d="M166.809 201.213C163.232 202.933 158.96 202.205 156.153 199.399C159.611 202.857 165.523 200.408 165.523 195.518V59.6175C165.523 54.7279 159.611 52.2792 156.153 55.7366C158.96 52.9305 163.232 52.2034 166.809 53.9233L197.691 68.7748C200.936 70.3354 203 73.6176 203 77.2185V177.918C203 181.519 200.936 184.801 197.691 186.362L166.809 201.213Z" fill="#1F9CF0"/>
</svg>